<mxfile host="app.diagrams.net" agent="Mozilla/5.0 (Windows NT 10.0; Win64; x64) AppleWebKit/537.36 (KHTML, like Gecko) Chrome/131.0.0.0 Safari/537.36 OPR/116.0.0.0" version="26.0.10">
  <diagram name="PÃ¡gina-1" id="3UdvH0Y0kKoX_gCEVQ1x">
    <mxGraphModel dx="1193" dy="1548" grid="1" gridSize="10" guides="1" tooltips="1" connect="1" arrows="1" fold="1" page="1" pageScale="1" pageWidth="827" pageHeight="1169" math="0" shadow="0">
      <root>
        <mxCell id="0" />
        <mxCell id="1" parent="0" />
        <mxCell id="0Zo5sLt8koRSVFzl2Vky-1" value="Inicio" style="strokeWidth=2;html=1;shape=mxgraph.flowchart.start_1;whiteSpace=wrap;" vertex="1" parent="1">
          <mxGeometry x="345" y="100" width="100" height="60" as="geometry" />
        </mxCell>
        <mxCell id="0Zo5sLt8koRSVFzl2Vky-2" value="Fim" style="strokeWidth=2;html=1;shape=mxgraph.flowchart.start_1;whiteSpace=wrap;" vertex="1" parent="1">
          <mxGeometry x="345" y="740" width="100" height="60" as="geometry" />
        </mxCell>
        <mxCell id="0Zo5sLt8koRSVFzl2Vky-3" value="WRK-COTACAO" style="html=1;strokeWidth=2;shape=manualInput;whiteSpace=wrap;rounded=1;size=26;arcSize=11;" vertex="1" parent="1">
          <mxGeometry x="335" y="190" width="110" height="60" as="geometry" />
        </mxCell>
        <mxCell id="0Zo5sLt8koRSVFzl2Vky-4" style="edgeStyle=orthogonalEdgeStyle;rounded=0;orthogonalLoop=1;jettySize=auto;html=1;exitX=0.5;exitY=1;exitDx=0;exitDy=0;exitPerimeter=0;entryX=0.54;entryY=0.143;entryDx=0;entryDy=0;entryPerimeter=0;" edge="1" parent="1" source="0Zo5sLt8koRSVFzl2Vky-1" target="0Zo5sLt8koRSVFzl2Vky-3">
          <mxGeometry relative="1" as="geometry" />
        </mxCell>
        <mxCell id="0Zo5sLt8koRSVFzl2Vky-8" style="edgeStyle=orthogonalEdgeStyle;rounded=0;orthogonalLoop=1;jettySize=auto;html=1;exitX=0.5;exitY=1;exitDx=0;exitDy=0;entryX=0.5;entryY=0;entryDx=0;entryDy=0;" edge="1" parent="1" source="0Zo5sLt8koRSVFzl2Vky-5" target="0Zo5sLt8koRSVFzl2Vky-7">
          <mxGeometry relative="1" as="geometry" />
        </mxCell>
        <mxCell id="0Zo5sLt8koRSVFzl2Vky-5" value="WRK-DOLARES" style="html=1;strokeWidth=2;shape=manualInput;whiteSpace=wrap;rounded=1;size=26;arcSize=11;" vertex="1" parent="1">
          <mxGeometry x="340" y="280" width="110" height="60" as="geometry" />
        </mxCell>
        <mxCell id="0Zo5sLt8koRSVFzl2Vky-6" style="edgeStyle=orthogonalEdgeStyle;rounded=0;orthogonalLoop=1;jettySize=auto;html=1;exitX=0.5;exitY=1;exitDx=0;exitDy=0;entryX=0.447;entryY=0.209;entryDx=0;entryDy=0;entryPerimeter=0;" edge="1" parent="1" source="0Zo5sLt8koRSVFzl2Vky-3" target="0Zo5sLt8koRSVFzl2Vky-5">
          <mxGeometry relative="1" as="geometry" />
        </mxCell>
        <mxCell id="0Zo5sLt8koRSVFzl2Vky-10" style="edgeStyle=orthogonalEdgeStyle;rounded=0;orthogonalLoop=1;jettySize=auto;html=1;exitX=0.5;exitY=1;exitDx=0;exitDy=0;entryX=0.5;entryY=0;entryDx=0;entryDy=0;" edge="1" parent="1" source="0Zo5sLt8koRSVFzl2Vky-7" target="0Zo5sLt8koRSVFzl2Vky-9">
          <mxGeometry relative="1" as="geometry" />
        </mxCell>
        <mxCell id="0Zo5sLt8koRSVFzl2Vky-7" value="WRK-REAL = WRK-COTACAO * WRK-DOLARES" style="rounded=1;whiteSpace=wrap;html=1;absoluteArcSize=1;arcSize=14;strokeWidth=2;" vertex="1" parent="1">
          <mxGeometry x="310" y="380" width="170" height="50" as="geometry" />
        </mxCell>
        <mxCell id="0Zo5sLt8koRSVFzl2Vky-12" style="edgeStyle=orthogonalEdgeStyle;rounded=0;orthogonalLoop=1;jettySize=auto;html=1;exitX=0.5;exitY=1;exitDx=0;exitDy=0;entryX=0.5;entryY=0;entryDx=0;entryDy=0;" edge="1" parent="1" source="0Zo5sLt8koRSVFzl2Vky-9" target="0Zo5sLt8koRSVFzl2Vky-11">
          <mxGeometry relative="1" as="geometry" />
        </mxCell>
        <mxCell id="0Zo5sLt8koRSVFzl2Vky-9" value="MOVE WRK-REAL TO WRK-REALED" style="rounded=1;whiteSpace=wrap;html=1;absoluteArcSize=1;arcSize=14;strokeWidth=2;" vertex="1" parent="1">
          <mxGeometry x="310" y="470" width="170" height="50" as="geometry" />
        </mxCell>
        <mxCell id="0Zo5sLt8koRSVFzl2Vky-11" value="MOVE WRK-DOLARES TO WRK-DOLARESED" style="rounded=1;whiteSpace=wrap;html=1;absoluteArcSize=1;arcSize=14;strokeWidth=2;" vertex="1" parent="1">
          <mxGeometry x="310" y="559.5" width="170" height="50" as="geometry" />
        </mxCell>
        <mxCell id="0Zo5sLt8koRSVFzl2Vky-13" value="WRK-DOLARESED&lt;div&gt;WRK-REALED&lt;/div&gt;" style="strokeWidth=2;html=1;shape=mxgraph.flowchart.display;whiteSpace=wrap;" vertex="1" parent="1">
          <mxGeometry x="325" y="650" width="130" height="60" as="geometry" />
        </mxCell>
        <mxCell id="0Zo5sLt8koRSVFzl2Vky-15" style="edgeStyle=orthogonalEdgeStyle;rounded=0;orthogonalLoop=1;jettySize=auto;html=1;exitX=0.5;exitY=1;exitDx=0;exitDy=0;exitPerimeter=0;entryX=0.5;entryY=0;entryDx=0;entryDy=0;entryPerimeter=0;" edge="1" parent="1" source="0Zo5sLt8koRSVFzl2Vky-13" target="0Zo5sLt8koRSVFzl2Vky-2">
          <mxGeometry relative="1" as="geometry" />
        </mxCell>
        <mxCell id="0Zo5sLt8koRSVFzl2Vky-16" style="edgeStyle=orthogonalEdgeStyle;rounded=0;orthogonalLoop=1;jettySize=auto;html=1;exitX=0.5;exitY=1;exitDx=0;exitDy=0;entryX=0.535;entryY=-0.026;entryDx=0;entryDy=0;entryPerimeter=0;" edge="1" parent="1" source="0Zo5sLt8koRSVFzl2Vky-11" target="0Zo5sLt8koRSVFzl2Vky-13">
          <mxGeometry relative="1" as="geometry" />
        </mxCell>
      </root>
    </mxGraphModel>
  </diagram>
</mxfile>
